<svg xmlns="http://www.w3.org/2000/svg" viewBox="0 0 2772.5 1550.34"><defs><style>.cls-1{fill:#c2e7f2;}.cls-2{fill:#739af0;}.cls-3{fill:#d9935c;}.cls-4{fill:#233862;}.cls-5{fill:#4a75cb;}.cls-6{fill:#2b478b;}.cls-7{fill:#ffa412;}.cls-8{fill:#e27f2b;}.cls-9{fill:#f1a34f;}.cls-10{fill:#cb7d45;}.cls-11{fill:#e9f3fe;}.cls-12{fill:#bed4f4;}.cls-13{fill:#afcdfb;}.cls-14,.cls-16{fill:#d86713;}.cls-15{fill:#ee9849;}.cls-16{opacity:0.4;}.cls-17{fill:#d2e4ff;}.cls-18{fill:#aed3ff;opacity:0.5;}.cls-19{fill:#283250;}.cls-20{fill:#fff;}.cls-21{fill:#ebf2f9;}</style></defs><title>Asset 1</title><g id="Layer_2" data-name="Layer 2"><g id="Layer_1-2" data-name="Layer 1"><path class="cls-1" d="M535.51,1531.84s-270.9-7.18-386.66-190.25C-60.87,1010,33.64,719.13,407,740.78,824.67,765,773.16-263,1496.36,231.92c157,107.48,506.55-118.24,646.19,352,33.2,111.82,282.56,119.61,443.72,209.29,252.79,140.66,181.4,740.94-57.41,743.31S535.51,1531.84,535.51,1531.84Z"/><g id="P297LW"><path class="cls-2" d="M285.82,815.32c12.08,2.8,66.67,3.46,105-5.16a116.29,116.29,0,0,0,21.33-6.65c7.23-3.18,12.67-7,15.45-11.66,4.33-7.22,12.25-31.92,21.57-64.32C474.84,638.28,511,490.8,511,490.8s-72.54,14.81-87.88,27.44-28.91,213.11-43.35,218.52c-2.12.8-5.79,2.48-10.5,4.8l-.69.34c-2.8,1.38-6,3-9.37,4.74-29.95,15.38-79.51,43.11-84.64,49.27C267.77,804,268.21,811.26,285.82,815.32Z"/><path class="cls-2" d="M425,604.93a56.52,56.52,0,0,1,1-10.25c9.33-51.32,83.54-103.88,85-103.88v1.07c0,7.84,12.37,22.32,31.41,23.57C565,516.92,592.87,504,592.87,491c.13,0,12.69,1.7,17,2.18,18.11,2.05,54.24,11.83,69.73,23.54,14.72,11.12-6.09,81.24-19,130.9-5.46,21-9.48,38.34-8.82,46,.33,3.75,3.7,54.72,6.71,100.83,2.49,38,4.74,72.75,4.81,74.93.16,4.32-21.32,19.45-57.39,30.88a279,279,0,0,1-28.61,7.42A303.84,303.84,0,0,1,515,913.89c-7.45,0-14.5-.4-21.17-1.07C442.35,907.77,424.7,849.05,425,604.93Z"/><path class="cls-3" d="M592.85,490.41c.43-19.93.11-43.74-2.59-63.84l-79.56,13s-.08,24.29.27,51.23c-.05,0-2.17,25,28.61,28.65S593.68,509.7,592.85,490.41Z"/><path class="cls-4" d="M526.29,1543.9c10-6.16,4.13-51.79,4.13-51.79s-46.86-37.2-53.18-8.56-44.22,41.63-65.81,45.21c-14.91,2.48-20.41,10.19-21.82,15.08Z"/><path class="cls-5" d="M599.17,759.34c0,76.3,37,55.74,59.3,35.14-3-46.11-5.12-209.42-5.12-209.42S599.17,650.08,599.17,759.34Z"/><path class="cls-5" d="M359.18,746.64c1.48,10.7,18.38,41.85,31.64,63.52a116.29,116.29,0,0,0,21.33-6.65c7.23-3.18,12.67-7,15.45-11.66,4.33-7.22,12.25-31.92,21.57-64.32-6.89-39.88-13.45-79.26-13.45-79.26l-2-26.41c0,2-30.92,118.07-44.93,120.78-8.44,1.64-14.42-.35-19.52-1.08l-.69.34C365.75,743.28,362.59,744.88,359.18,746.64Z"/><path class="cls-4" d="M669.87,1543.9c10-6.16,4.12-51.79,4.12-51.79s-46.86-37.2-53.17-8.56-44.22,41.63-65.82,45.21c-14.9,2.48-20.32,10.19-21.73,15.08Z"/><path class="cls-4" d="M600.43,403.62s53.11-83.74-48.88-89.28c0,0-38.25,4.5-46.91-4.16,0,0-29.67,45.1-2,93.44S600.43,403.62,600.43,403.62Z"/><path class="cls-3" d="M513.06,447.32c7.73,6.08,30.4,12.13,37,12.83,0,0,33.62-7.49,39.73-11.18,9.46-5.73,8.85-17.35,9.34-33.49.58-19.1,2.5-34.11.37-45.12-2.54-13.18-10.89-20.68-34.28-22.71-42.94-3.73-60.82,7-61.57,21.42-.19,3.86-.37,7.55-.5,11C501.38,425,504.93,440.92,513.06,447.32Z"/><path class="cls-4" d="M502.71,394.83c.42,26,7.43,41.4,12.51,43.34a107.53,107.53,0,0,0,19.92,5.32c2.42.29,4.74.21,4.71-1.17-.08-4.1-5.56-9.15-1.49-12.79,4.27-3.81,27.2-5.09,29,3.22.9,4.06-6.49,11.21-1.43,11.38,1.54-.26,3-.56,4.49-.94a66.57,66.57,0,0,0,17.67-7.79c9.46-5.74,8.84-14.53,10.93-30.54,1.36-10.36,1.36-4.75,0,10.62-1.41,16.09,1.36,26.41-9.33,33.49-6,3.94-40.22,19.34-40.22,19.34.49-8.16-28.73-14.91-36.46-21C505.88,441.68,502.28,428.63,502.71,394.83Z"/><path class="cls-6" d="M663.27,869.41c.17,4.32-21.32,19.45-57.39,30.88-2.9.93-5.91,1.82-9,2.68a.11.11,0,0,0-.08.08c-3.36,39.48-12.47,95.26-20.69,149.08h0c-2.13,13.95-4.18,27.77-6.08,41.14-5,35.38-8.76,67.61-9.17,90.82v.24c-.18,10.65,8.8,37.21,9.48,43.34.42,3.76.76,7.73,1,11.88,1,16.62.59,36.26-.76,57.23-5.89,91.51-30.07,208.59-38.69,213.58-17.15,9.91-48.36,0-64.22-2.33-6.57-1-11.82-6.57-11.49-13.2,7.75-151.86-14.5-363.37-31.14-493.38q-.65-5.09-1.28-10c-2-15.33-3.31-29.65-4.13-42.56-.76-11.32-1.13-21.6-1.29-30.52,0-2.77-.07-5.43-.08-7.93,0-8.14,6.43-61.43,6.73-305.55h0a10.3,10.3,0,0,1,10.26-10.25H584.54a25.87,25.87,0,0,1,25.85,26.23c-.23,18.62.44,44.62,4.49,69.43,5.51,33.9,17.31,65.57,41.66,73.19,0,0,.05,0,.06.05.11.24.77,1.73,1.84,4.19a.08.08,0,0,1,0,0q.34,9.2.77,18.73c.06,1.27.11,2.56.18,3.85,0,.76.07,1.5.11,2.26,0,1.29.12,2.58.19,3.89.09,2.14.2,4.29.32,6.47.1,1.71.19,3.41.29,5.13.17,3.31.38,6.65.59,10,.06,1.08.12,2.15.21,3.25.28,4.36.58,8.79.92,13.25.09,1.36.2,2.73.31,4.11,0,.67.09,1.33.15,2,.13,1.75.27,3.5.42,5.26s.31,3.72.47,5.61C664,858.49,663.1,864.6,663.27,869.41Z"/><path class="cls-4" d="M570.58,1296.79c-5.89,91.51-30.07,208.59-38.69,213.58-17.15,9.91-48.36,0-64.22-2.33-6.57-1-11.82-6.57-11.49-13.2,7.75-151.86-14.5-363.37-31.14-493.38q-.65-5.09-1.28-10c-2-15.33-3.31-29.65-4.13-42.56,7.91-51.55,52.55-54.31,93,52.32C507.66,1036.63,571.93,1275.82,570.58,1296.79Z"/><path class="cls-6" d="M665,1179.79c1.22,10.58,13.6,35.74,15.09,41.73,20.47,82.31,9.16,277.48-1,285.28-15.7,12.08-47.94,6.34-64,6.13-6.64-.1-12.59-5-13.12-11.57-12.59-155.5-64.73-369.09-98.27-494.73-16.89-63.29-19.28-109.83-19.28-109.83s156.74-96,173.69-43.57C673.11,899.65,655.49,1098.57,665,1179.79Z"/><path class="cls-7" d="M505.31,290.92q1.62-1.82,3.43-3.54a61.17,61.17,0,0,1,18.68-12.13c27.33-11.4,50-.88,64.16,9.9,1.39,1.05,2.7,2.11,3.93,3.16a82.15,82.15,0,0,1,12,12.39s13.28,18.1,12.84,56.27l-136.72,1.46S481.61,317.21,505.31,290.92Z"/><path class="cls-8" d="M582,357.37l-7.51.08c-.16-2.18.21-51.79,18.72-71.06,1.4,1.06,1.1.87,2.33,1.92C577.93,305.28,581.93,356.86,582,357.37Z"/><path class="cls-8" d="M522.56,358c-1.56-30.38-13.2-62.3-16.34-68a33.11,33.11,0,0,1,2.52-2.66c2.18,3.76,20,36.81,21.9,70.55l89.7-1s-45.46,10.2-72.88,10.54-63.84-9.08-63.84-9.08Z"/><path class="cls-6" d="M615.19,493.91S569,547.72,566.28,594.68l23.54,1.25s5.92-52.3,40.69-98.8c0,0-5.44-1.32-7.25-1.68C620.84,495,615.19,493.91,615.19,493.91Z"/><path class="cls-6" d="M500,493.17c-33.09,50.08-36.63,102.53-36.63,102.53l-23.76-.41c1.95-36.91,25.14-77.51,37.94-96.75C477.56,498.54,494,494.39,500,493.17Z"/><path class="cls-7" d="M551.6,1009.61h19.07c8.87-4,56.63-24.72,102.54-25,33.13-.18,70.87,24.57,73.14,24.83,5.76.68-19.19.91-19.19.91S689.78,993.84,673,993.45c-16-.38-51.56,11.26-65.76,16.16H714.14a16.29,16.29,0,0,1,16.25,16.25v121.9A16.3,16.3,0,0,1,714.14,1164H551.6a16.31,16.31,0,0,1-16.26-16.26v-121.9A16.3,16.3,0,0,1,551.6,1009.61Z"/><rect class="cls-8" x="588.17" y="1009.61" width="195.05" height="154.41" rx="16.25"/><path class="cls-2" d="M652.16,782.79c-1.17,55.1,5.7,164.83,5.7,164.83h32.51c15.35-77.21,20.76-126.88,20.76-154,0-5.33,0-10.31-.07-14.9-.2-23.13-.82-36.57-.82-36.57,6.09-140.17-21.9-215.13-30.69-225.45s-49-19.6-49-19.6-13.28,38.72-18.7,69.88,42.61,162,40.63,206.79Q652.26,778,652.16,782.79Z"/><path class="cls-9" d="M230.24,820.3h26.29a4.77,4.77,0,0,1,4.74,4.76v715.88a4.76,4.76,0,0,1-4.74,4.75H230.24a4.75,4.75,0,0,1-4.74-4.75V825.06A4.76,4.76,0,0,1,230.24,820.3Z"/><path class="cls-6" d="M230.24,820.3h26.29a4.77,4.77,0,0,1,4.74,4.76v22.18H225.5V825.06A4.76,4.76,0,0,1,230.24,820.3Z"/><path class="cls-6" d="M261.27,1540.94a4.76,4.76,0,0,1-4.74,4.75H230.24a4.75,4.75,0,0,1-4.74-4.75v-19.13h35.77Z"/><path class="cls-8" d="M243.16,867.21a2.72,2.72,0,0,1,2.71,2.71v630.13a2.71,2.71,0,1,1-5.42,0V869.92A2.72,2.72,0,0,1,243.16,867.21Z"/><path class="cls-3" d="M657.86,947.62s-6.87-109.73-5.7-164.83c26-8.38,47-6.54,58.9-4,.05,4.59.07,9.57.07,14.9,0,27.09-5.41,76.76-20.76,154,6.77,28.44,6.32,59.14-5.42,64.56s-50.57-14.9-50.12-23.93S657.86,947.62,657.86,947.62Z"/><path class="cls-3" d="M213.08,820.75c3.17-11.62,5.52-18.06,13.52-23.71,11.62-8.2,25.42-6,35.71-4.17,7.86,1.38,16.09-1.26,19.54-2.58,18.22-12.14,63.94-37.17,86.7-48.39,15.54,9,34.62,26.83,43.6,61.61-35,15.46-111.73,15.19-126.33,11.81,0,0-13.52,9.83-23.8,10.73-3.9.34-8.8-.79-13.39-2.33-7.23-2.42-15,0-20.18,6.42-5,6.18-11.52,9.57-14.23,9.57C210,839.71,211.08,828.06,213.08,820.75Z"/></g><g id="P297LW-2" data-name="P297LW"><path class="cls-7" d="M1091.94,685.1c-13.41,41-86.45,111.95-96.55,119,0,0-17-28.33-13.6-44.19,2.78-12.95,31.22-59.11,41-81.79.51-1.18,1-2.3,1.36-3.35,1.34-3.48,2-6.17,1.88-7.77-.48-4.93-16-16.92-34-31.14-23.39-18.49-51-40.73-55.53-56.11-7.93-27.19-35.41-134.86-35.41-134.86s68.27,14.76,87.53,31.76,102,158.62,105.38,194.88A34.16,34.16,0,0,1,1091.94,685.1Z"/><path class="cls-3" d="M1091.94,685.1c-13.41,41-86.45,111.95-96.55,119,0,0-17-28.33-13.6-44.19,2.93-13.62,34.25-64,42.31-85.14C1036.24,672.69,1064.73,670.1,1091.94,685.1Z"/><path class="cls-3" d="M901.09,435.45l-.05,8.36s2.28,26.15-29.92,30-56.45-7.86-55.58-28c2.9-15.62,5.94-28.7,6.15-41.62a91.35,91.35,0,0,0-1.14-15.66l62.4-1.25,18.37,3Z"/><path class="cls-10" d="M901.32,390.21l-.23,45.24a52.81,52.81,0,0,1-22.49,5c-28.68,0-47.22-21-56.91-36.29a91.35,91.35,0,0,0-1.14-15.66l62.4-1.25Z"/><path class="cls-4" d="M846.09,1544.29s-3-23.59-10.05-37.62-51.64-5.1-51.64-5.1-8.93,7.65-10.84,43.36Z"/><path class="cls-4" d="M998.16,1544.21c-10.49-6.4-4.52-54.15-4.52-54.15s48.87-39.1,55.59-9.17,46.42,43.37,69,47c15.6,2.53,20.43,11.17,21.93,16.28Z"/><path class="cls-6" d="M896.93,1191.57a226.68,226.68,0,0,1,3.59,26.39c4.54,88.62,74.59,291.23,87.12,296,19.39,7.31,49.92-8.24,65.89-13.33,6.62-2.11,11.09-8.79,9.61-15.56-34.69-159.48-47.44-389.12-52.08-525.08C1008.72,891.47,997,844.16,997,844.16S826.12,798.58,825.1,856.24C824.2,907.27,881.7,1107.39,896.93,1191.57Z"/><path class="cls-4" d="M896.93,1191.57,1011.06,960C1008.72,891.47,997,844.16,997,844.16S826.12,798.58,825.1,856.24C824.2,907.27,881.7,1107.39,896.93,1191.57Z"/><path class="cls-6" d="M935,856.45l-90.32,654.6s-39.67,9.56-70.52,1.91c0,0-26.44-348.15-24.23-432.31s-19-225.22,4.83-240.78S935,856.45,935,856.45Z"/><path class="cls-7" d="M1001.88,857.66s-46.15,26.91-113,26.15a503.34,503.34,0,0,1-68-5.11c-53.62-8-80.67-22.92-80.46-28.5.18-5,.53-21.74,1.17-28.93,8.52-98.25,4.11-174.68,15.58-232.09.14-.69.27-1.38.42-2.06,15.17-73,39-114.93,50.76-132.13,4.32-6.28,7-9.25,7.16-9.25,0,13.62,29,25.39,52.65,23.84,19.92-1.3,32.85-16.45,32.85-24.65l0,0c1.64,0,89.86,61.32,89.93,118.3C991.3,818.58,1006.78,857.75,1001.88,857.66Z"/><path class="cls-8" d="M821,877.86c0,.28-.08.57-.13.84-53.62-8-80.67-22.92-80.46-28.5.18-5,.53-21.74,1.17-28.93,8.52-98.25,4.11-174.68,15.58-232.09C785.34,626.8,843.2,725.32,821,877.86Z"/><path class="cls-11" d="M967.9,755.72l-7.2,24-7.16,23.79-311-93.56a3.66,3.66,0,0,1-1.28-.14,4.19,4.19,0,0,1-1.2-.59c-3.92-2.78-4.63-12.94-1.62-24.4.16-.63.34-1.27.53-1.91,3.64-12.32,10.26-21.43,15.33-21.51a4.06,4.06,0,0,1,1.21.16,4.2,4.2,0,0,1,1.15.55Z"/><path class="cls-12" d="M960.7,779.7l-7.16,23.79-311-93.56a3.66,3.66,0,0,1-1.28-.14,4.19,4.19,0,0,1-1.2-.59c-3.92-2.78-4.63-12.94-1.62-24.4,12.71,9.54,73.43,51.75,177.07,72.28C922.62,778.3,955.77,779.63,960.7,779.7Z"/><path class="cls-13" d="M968.5,755.58c-5.2-1.54-12.61,8-16.54,21.35s-2.91,25.37,2.29,26.91,12.61-8,16.54-21.35S973.7,757.12,968.5,755.58Z"/><path class="cls-11" d="M658.88,653.31l-36.66-5.95A4.41,4.41,0,0,0,621,647a4.53,4.53,0,0,0-1.22,0c-5,.75-10.39,10.64-12.38,23.33-.11.67-.21,1.32-.28,2a50.47,50.47,0,0,0,.13,15c.82,4.45,2.39,7.69,4.54,8.9l.13.08a4,4,0,0,0,1.27.43,3.73,3.73,0,0,0,1.29,0l320.6,52,4-24.52,4-24.71Z"/><path class="cls-12" d="M792.14,720.73c-68.57-4.41-104.92-40.67-133.26-67.42l-36.66-5.95A4.41,4.41,0,0,0,621,647a4.53,4.53,0,0,0-1.22,0c-5,.75-10.39,10.64-12.38,23.33-.11.67-.21,1.32-.28,2a50.47,50.47,0,0,0,.13,15c1.72,4.87,3.49,8.18,4.54,8.9l.13.08a4,4,0,0,0,1.27.43,3.73,3.73,0,0,0,1.29,0l320.6,52,4-24.52C934.17,724.71,901.13,727.74,792.14,720.73Z"/><path class="cls-13" d="M943.64,699.21c-5.35-.85-11.44,9.6-13.6,23.32s.44,25.54,5.8,26.38,11.44-9.6,13.6-23.33S949,700.05,943.64,699.21Z"/><path class="cls-3" d="M829.59,793.55c-74.36-11.83-123.51-43-143.69-58.06-6.89-5.14-10.41-8.42-10.41-8.42C637.39,647,706.32,506.51,718.92,482.7c13.6-25.67,96.62-37,96.62-37a451.46,451.46,0,0,0-18.43,89.84c-5.18,50.85-60.43,149.94-58.16,158.26.56,2.1,7.24,6.49,17,12,28.86,16.43,84.63,42.92,88,49.14C848.47,763.33,829.59,793.55,829.59,793.55Z"/><path class="cls-3" d="M843.94,755s41.54-16.62,51.74-9.82,27.2,17,27.2,23.79-21.53,24.93-39.66,30.6-53.63-6.05-53.63-6.05Z"/><path class="cls-7" d="M797.11,535.58c-5.18,50.85-60.43,149.94-58.16,158.26.56,2.1,7.24,6.49,17,12a16.57,16.57,0,0,1-1.87,0c-43.47-1.92-63.13,22.13-68.15,29.57-6.89-5.14-10.41-8.42-10.41-8.42C637.39,647,706.32,506.51,718.92,482.7c13.6-25.67,96.62-37,96.62-37A451.46,451.46,0,0,0,797.11,535.58Z"/><path class="cls-3" d="M905,412.19s-79.92,16.15-89.21-33.78S789.91,297,840.54,284.54s64.11,4.78,71.27,20.69S925.51,406.71,905,412.19Z"/><path class="cls-4" d="M817.36,392.81s-15.45-33-28.33-47.62-5.86-87.85,49.78-85.5,75.55,42.16,76.13,49.78-44.51,1.76-56.81,11.71-.58,26.36-14.64,32.21-25.18,5.86-22.84,18.74S817.36,392.81,817.36,392.81Z"/><path class="cls-7" d="M834.53,225.69c-15.92,4-27.86,10.39-36.78,18.09-.88.76-1.74,1.54-2.57,2.33h0c-33,31.47-19.83,81.55-19.83,81.55s4.39,12.65,7.41,17.56,46.84-.75,49.1-10.2,11-19.26,11-19.26,46.18-3.17,49.28-3.4c10.44-.75,40.21-11.11,40.21-11.11C932,298.33,915.2,205.43,834.53,225.69Z"/><path class="cls-8" d="M959.66,291.44c-5.54-1.35-15-2.86-30.55-3.43,0,0-13.07,10.83-39.06,19.08-12.21-15.39-47-52.47-92.3-63.31l-.4-.1c-1,1.21-1.5,1.62-2.17,2.43h0a9.29,9.29,0,0,0-.66.87c36.88,6.43,71.93,47.85,84,63.35a204.86,204.86,0,0,1-35.66,5.43s80.71,1.51,117.6-17.92A3.45,3.45,0,0,0,959.66,291.44Z"/><path class="cls-8" d="M1041.85,658c-1.5,8.47-6.07,17.39-19.11,20.18.51-1.18,1-2.3,1.36-3.35,1.34-3.48,2-6.17,1.88-7.77-.48-4.93-16-16.92-34-31.14-1.48-8.06-5.11-32,0-51C998.22,561.65,1043.55,648.32,1041.85,658Z"/><path class="cls-8" d="M747.25,700.16s-55.52-4.53-73.65,27.76c0,0,1.55,10.89,12.3,7.57,0,0,47-32.1,70-29.61C755.92,705.88,752.35,700.26,747.25,700.16Z"/><path class="cls-8" d="M1022.74,678.14s28.81,1.2,65.07,17c0,0,8-7.9,4.83-12.44S1038.39,661.87,1022.74,678.14Z"/></g><path class="cls-14" d="M2067.85,883.84,2120.09,1505s5.48,37.65-22.53,37.72c-46,.11-229.2,0-229.2,0s34.66-7.84,34.24-25.47c-.49-20.79-61-639.25-61-639.25Z"/><path class="cls-15" d="M2082.33,1531.42c-44.84.57-219.77,0-228.83,0,3.41,0,29.72-.65,33.44-20.45a26.43,26.43,0,0,0,.44-5c0-3.88-2.15-28.45-5.6-65.9-3.09-33.58-7.25-77.51-11.91-126.13-18-188.4-43.55-447.22-43.55-447.22l226.31,5.87,37.12,441.35,7.25,86.14,6.51,77.5,1.36,16.15S2111.26,1531.05,2082.33,1531.42Z"/><polygon class="cls-9" points="2617.46 545.85 2490.22 1056.96 2472.8 1126.96 2413.53 1365.02 1312.51 1365.02 1530.94 545.85 2617.46 545.85"/><polygon class="cls-15" points="2617.46 545.85 2635.1 551.73 2436.98 1382.8 2413.53 1365.02 2617.46 545.85"/><polygon class="cls-14" points="2436.98 1382.8 1342.73 1382.8 1312.51 1365.02 2413.53 1365.02 2436.98 1382.8"/><rect class="cls-9" x="1815.79" y="1531.67" width="236.92" height="11.26"/><path class="cls-14" d="M2098.48,1382.44l-1.48,17.62-.06.65s-153.9,14.76-215.16,39.34c-1.55-16.84-3.37-36.28-5.38-57.61Z"/><path class="cls-16" d="M2082.33,1531.42c-44.84.57-219.77,0-228.83,0,3.41,0,29.72-.65,33.44-20.45,18,.93,118.19,4.13,216.57-33.41l1.36,16.15S2111.26,1531.05,2082.33,1531.42Z"/><path class="cls-16" d="M2452.14,1204.21l-40,160.81H2041.41c156.74-49.79,230.93-122.64,260.83-160.81Z"/><polygon class="cls-17" points="2609.16 556.68 2452.14 1204.21 1368.54 1204.21 1544.5 556.68 2609.16 556.68"/><polygon class="cls-9" points="1355.14 1204.21 1368.54 1204.21 1365.85 1214.08 1352.89 1212.61 1355.14 1204.21"/><rect class="cls-2" x="1800.77" y="173.35" width="3.4" height="60.44"/><rect class="cls-2" x="1988.88" y="173.35" width="3.4" height="60.44"/><rect class="cls-2" x="1824.54" y="173.35" width="3.4" height="60.44"/><rect class="cls-2" x="2005.86" y="173.35" width="3.4" height="60.44"/><path class="cls-2" d="M1761.15,115.87h0l-.12-.08-.56-.39L1591.57,0,1196.33,119l-2.84,118.91h-9.06a9.78,9.78,0,0,0-9.75,9.75v9.75a9.78,9.78,0,0,0,9.75,9.75h31.42a9.78,9.78,0,0,0,9.75-9.75v-9.75a9.78,9.78,0,0,0-9.75-9.75h-15.29l74.53-80.16h267.36V1204.21h65V157.78h55.24v22.75a9.78,9.78,0,0,0,9.75,9.75h82.87a9.78,9.78,0,0,0,9.75-9.75V123.65A9.74,9.74,0,0,0,1761.15,115.87Zm-562,115.2,2.76-73.29h65.38Zm473.26-117.16a9.77,9.77,0,0,0-9.6,8.12H1206.19L1590.63,6.22l158.7,107.69Z"/><path class="cls-2" d="M2575.71,499.48h-5.54L2568.93,427,2326.84,354l-103.51,70.71,3.42-1.08a6,6,0,0,0-6,6v34.76a6,6,0,0,0,6,6h50.66a6,6,0,0,0,6-6v-13.9h33.77v639.64h39.73V450.49h163.42l45.56,49h-9.34a6,6,0,0,0-6,6v6a6,6,0,0,0,6,6h19.2a6,6,0,0,0,6-6v-6A6,6,0,0,0,2575.71,499.48Zm-292.43-70.85a6,6,0,0,0-5.87-5h-47.55l97.56-65.82,235,70.78ZM2525,450.49h40.48l1.17,44.8Z"/><path class="cls-2" d="M2246.78,518.1v-4.25h-9.29v-28h-7.68v28h-19.47v-28h-7.69v28h-21.16v-28h-7.69v28h-19.47v-28h-7.68v28h-10.18v4.25h10.18v13.63h-10.18V536h10.18V549.6h-10.18v4.25h10.18v13.63h-10.18v4.24h10.18v13.64h-10.18v4.24h10.18v13.63h-10.18v4.24h10.18v11h-10.18v4.25h10.18v13.63h-10.18v4.24h10.18v13.64h-10.18v4.24h10.18v13.63h-10.18v4.24h10.18V690h-10.18v4.24h10.18v13.63h-10.18v4.25h10.18v13h-10.18v4.24h10.18V743h-10.18v4.24h10.18v13.64h-10.18v4.24h10.18v13.63h-10.18V783h10.18v13.63h-10.18v4.24h10.18v13.63h-10.18v4.25h10.18v11h-10.18V834h10.18v13.63h-10.18v4.25h10.18v13.63h-10.18v4.24h10.18v13.63h-10.18v4.25h10.18v13.63h-10.18v4.24h10.18v13.64h-10.18v4.24h10.18v12.16h-10.18v4.24h10.18v13.64h-10.18v4.24h10.18v13.63h-10.18v4.24h10.18V989.2h-10.18v4.24h10.18v13.63h-10.18v4.24h10.18V1025h-10.18v4.24h10.18v11h-10.18v4.24h10.18v13.64h-10.18v4.24h10.18V1076h-10.18v4.25h110.31V1076h-9.29v-13.63h9.29v-4.24h-9.29v-13.64h9.29v-4.24h-9.29v-11h9.29V1025h-9.29v-13.64h9.29v-4.24h-9.29V993.44h9.29V989.2h-9.29V975.56h9.29v-4.24h-9.29V957.69h9.29v-4.24h-9.29V939.81h9.29v-4.24h-9.29V923.41h9.29v-4.24h-9.29V905.53h9.29v-4.24h-9.29V887.66h9.29v-4.25h-9.29V869.78h9.29v-4.24h-9.29V851.91h9.29v-4.25h-9.29V834h9.29v-4.24h-9.29v-11h9.29v-4.25h-9.29V800.88h9.29v-4.24h-9.29V783h9.29v-4.25h-9.29V765.13h9.29v-4.24h-9.29V747.25h9.29V743h-9.29V729.38h9.29v-4.24h-9.29v-13h9.29v-4.25h-9.29V694.25h9.29V690h-9.29V676.37h9.29v-4.24h-9.29V658.5h9.29v-4.24h-9.29V640.62h9.29v-4.24h-9.29V622.75h9.29V618.5h-9.29v-11h9.29v-4.24h-9.29V589.6h9.29v-4.24h-9.29V571.72h9.29v-4.24h-9.29V553.85h9.29V549.6h-9.29V536h9.29v-4.24h-9.29V518.1Zm-44.13,0v13.63h-21.16V518.1Zm-21.16,540v-13.64h21.16v13.64Zm21.16,4.24V1076h-21.16v-13.63Zm-21.16-22.12v-11h21.16v11Zm0-15.27v-13.64h21.16V1025Zm0-17.88V993.44h21.16v13.63Zm0-17.87V975.56h21.16V989.2Zm0-17.88V957.69h21.16v13.63Zm0-17.87V939.81h21.16v13.64Zm0-17.88V923.41h21.16v12.16Zm0-16.4V905.53h21.16v13.64Zm0-17.88V887.66h21.16v13.63Zm0-17.88V869.78h21.16v13.63Zm0-17.87V851.91h21.16v13.63Zm0-17.88V834h21.16v13.63Zm0-17.87v-11h21.16v11Zm0-15.28V800.88h21.16v13.63Zm0-17.87V783h21.16v13.63Zm0-17.88V765.13h21.16v13.63Zm0-17.87V747.25h21.16v13.64Zm0-17.88V729.38h21.16V743Zm0-17.87v-13h21.16v13Zm0-17.26V694.25h21.16v13.63Zm0-17.87V676.37h21.16V690Zm0-17.88V658.5h21.16v13.63Zm0-17.87V640.62h21.16v13.64Zm0-17.88V622.75h21.16v13.63Zm0-17.88v-11h21.16v11Zm0-15.27V589.6h21.16v13.63Zm0-17.87V571.72h21.16v13.64Zm0-17.88V553.85h21.16v13.63Zm0-17.88V536h21.16V549.6Zm-27.16-31.5h19.47v13.63h-19.47Zm0,17.87h19.47V549.6h-19.47Zm0,17.88h19.47v13.63h-19.47Zm0,17.87h19.47v13.64h-19.47Zm0,17.88h19.47v13.63h-19.47Zm0,17.87h19.47v11h-19.47Zm0,15.28h19.47v13.63h-19.47Zm0,17.87h19.47v13.64h-19.47Zm0,17.88h19.47v13.63h-19.47Zm0,17.87h19.47V690h-19.47Zm0,17.88h19.47v13.63h-19.47Zm0,17.88h19.47v13h-19.47Zm0,17.25h19.47V743h-19.47Zm0,17.87h19.47v13.64h-19.47Zm0,17.88h19.47v13.63h-19.47Zm0,17.88h19.47v13.63h-19.47Zm0,17.87h19.47v13.63h-19.47Zm0,17.88h19.47v11h-19.47Zm0,15.27h19.47v13.63h-19.47Zm0,17.88h19.47v13.63h-19.47Zm0,17.87h19.47v13.63h-19.47Zm0,17.88h19.47v13.63h-19.47Zm0,17.87h19.47v13.64h-19.47Zm0,17.88h19.47v12.16h-19.47Zm0,16.4h19.47v13.64h-19.47Zm0,17.88h19.47v13.63h-19.47Zm0,17.87h19.47V989.2h-19.47Zm0,17.88h19.47v13.63h-19.47Zm0,17.87h19.47V1025h-19.47Zm0,17.88h19.47v11h-19.47Zm0,15.27h19.47v13.64h-19.47Zm0,17.88h19.47V1076h-19.47Zm75.48,13.63h-19.47v-13.63h19.47Zm0-17.87h-19.47v-13.64h19.47Zm0-17.88h-19.47v-11h19.47Zm0-15.27h-19.47v-13.64h19.47Zm0-17.88h-19.47V993.44h19.47Zm0-17.87h-19.47V975.56h19.47Zm0-17.88h-19.47V957.69h19.47Zm0-17.87h-19.47V939.81h19.47Zm0-17.88h-19.47V923.41h19.47Zm0-16.4h-19.47V905.53h19.47Zm0-17.88h-19.47V887.66h19.47Zm0-17.88h-19.47V869.78h19.47Zm0-17.87h-19.47V851.91h19.47Zm0-17.88h-19.47V834h19.47Zm0-17.87h-19.47v-11h19.47Zm0-15.28h-19.47V800.88h19.47Zm0-17.87h-19.47V783h19.47Zm0-17.88h-19.47V765.13h19.47Zm0-17.87h-19.47V747.25h19.47Zm0-17.88h-19.47V729.38h19.47Zm0-17.87h-19.47v-13h19.47Zm0-17.26h-19.47V694.25h19.47Zm0-17.87h-19.47V676.37h19.47Zm0-17.88h-19.47V658.5h19.47Zm0-17.87h-19.47V640.62h19.47Zm0-17.88h-19.47V622.75h19.47Zm0-17.88h-19.47v-11h19.47Zm0-15.27h-19.47V589.6h19.47Zm0-17.87h-19.47V571.72h19.47Zm0-17.88h-19.47V553.85h19.47Zm0-17.88h-19.47V536h19.47Zm0-17.87h-19.47V518.1h19.47Z"/><rect class="cls-2" x="1784.32" y="222.8" width="315.38" height="981.41"/><rect class="cls-18" x="1784.44" y="357.66" width="228.27" height="143.78"/><rect class="cls-18" x="1784.44" y="620.94" width="228.27" height="143.78"/><rect class="cls-18" x="1784.44" y="880.82" width="228.27" height="143.78"/><polygon class="cls-5" points="2450.43 1023.67 2450.43 890.72 2099.82 890.72 2099.82 222.25 2012.72 222.25 2012.72 1204.21 2099.82 1204.21 2099.82 1204.21 2452.14 1204.21 2495.91 1023.67 2450.43 1023.67"/><path class="cls-2" d="M2404.18,1204.13h7.69v-12.3h19.47v12.34H2439v-12.35h16.12l1-4.24H2439V1174h20.45l9.34-38.52h-.94v-13.64h4.25l1-4.24h-5.28v-13.63h8.58l1-4.24h-9.61v-13.64h12.92l1-4.24h-14v-13.63h17.25l1-4.25h-18.28v-11h19.47V1059l7.68-31.69v-10.19h2.47l1-4.24H2495V999.29h6.81l1-4.25H2495V981.41h9.29v-4.24H2495V963.54h9.29v-4.25H2495v-13h9.29V942H2495V928.41h9.29v-4.25H2495V910.53h9.29v-4.24H2495V892.66h9.29v-4.25H2495V874.78h9.29v-4.24H2495V856.9h9.29v-4.24H2495v-11h9.29v-4.24H2495V823.76h9.29v-4.25H2495V805.88h9.29v-4.24H2495V788h9.29v-4.24H2495V770.13h9.29v-4.24H2495V752.25h9.29V748H2495V720h-7.68v28h-19.47V720h-7.68v28H2439V720h-7.68v28h-19.47V720h-7.69v28H2394v4.24h10.18v13.64H2394v4.24h10.18v13.63H2394V788h10.18v13.64H2394v4.24h10.18v13.63H2394v4.25h10.18v13.63H2394v4.24h10.18v11H2394v4.24h10.18v13.64H2394v4.24h10.18v13.63H2394v4.25h10.18v13.63H2394v4.24h10.18v13.63H2394v4.25h10.18V942H2394v4.24h10.18v13H2394v4.25h10.18v13.63H2394v4.24h10.18V995H2394v4.25h10.18v13.63H2394v4.24h10.18v13.64H2394V1035h10.18v13.63H2394v4.24h10.18v11H2394v4.25h10.18v13.63H2394v4.24h10.18v13.64H2394v4.24h10.18v13.63H2394v4.24h10.18v13.64H2394v4.24h10.18v13.63H2394v4.25h10.18v12.16H2394V1174h10.18v13.63H2394v4.24h10.18Zm63.69-451.88h19.47v13.64h-19.47Zm0,17.88h19.47v13.63h-19.47Zm0,17.87h19.47v13.64h-19.47Zm0,17.88h19.47v13.63h-19.47Zm0,17.88h19.47v13.63h-19.47Zm0,17.87h19.47v11h-19.47Zm0,15.27h19.47v13.64h-19.47Zm0,17.88h19.47v13.63h-19.47Zm0,17.88h19.47v13.63h-19.47Zm0,17.87h19.47v13.63h-19.47Zm0,17.88h19.47V942h-19.47Zm0,17.87h19.47v13h-19.47Zm0,17.26h19.47v13.63h-19.47Zm0,17.87h19.47V995h-19.47Zm0,17.88h19.47v13.63h-19.47Zm0,17.87h19.47v13.64h-19.47Zm0,17.88h19.47v13.63h-19.47ZM2439,752.25h21.17v13.64H2439Zm0,17.88h21.17v13.63H2439Zm0,17.87h21.17v13.64H2439Zm0,17.88h21.17v13.63H2439Zm0,17.88h21.17v13.63H2439Zm0,17.87h21.17v11H2439Zm0,15.27h21.17v13.64H2439Zm0,17.88h21.17v13.63H2439Zm0,17.88h21.17v13.63H2439Zm0,17.87h21.17v13.63H2439Zm0,17.88h21.17V942H2439Zm0,17.87h21.17v13H2439Zm0,17.26h21.17v13.63H2439Zm0,17.87h21.17V995H2439Zm0,17.88h21.17v13.63H2439Zm0,17.87h21.17v13.64H2439Zm0,17.88h21.17v13.63H2439Zm0,17.87h21.17v11H2439Zm0,15.28h21.17v13.63H2439Zm0,17.87h21.17v13.64H2439Zm0,17.88h21.17v13.63H2439Zm0,17.87h21.17v13.64H2439Zm0,17.88h21.17v13.63H2439Zm0,17.88h21.17v12.16H2439Zm-27.15-405.32h19.47v13.64h-19.47Zm0,17.88h19.47v13.63h-19.47Zm0,17.87h19.47v13.64h-19.47Zm0,17.88h19.47v13.63h-19.47Zm0,17.88h19.47v13.63h-19.47Zm0,17.87h19.47v11h-19.47Zm0,15.27h19.47v13.64h-19.47Zm0,17.88h19.47v13.63h-19.47Zm0,17.88h19.47v13.63h-19.47Zm0,17.87h19.47v13.63h-19.47Zm0,17.88h19.47V942h-19.47Zm0,17.87h19.47v13h-19.47Zm0,17.26h19.47v13.63h-19.47Zm0,17.87h19.47V995h-19.47Zm0,17.88h19.47v13.63h-19.47Zm0,17.87h19.47v13.64h-19.47Zm0,17.88h19.47v13.63h-19.47Zm0,17.87h19.47v11h-19.47Zm0,15.28h19.47v13.63h-19.47Zm0,17.87h19.47v13.64h-19.47Zm0,17.88h19.47v13.63h-19.47Zm0,17.87h19.47v13.64h-19.47Zm0,17.88h19.47v13.63h-19.47Zm0,17.88h19.47v12.16h-19.47Zm0,16.4h19.47v13.63h-19.47Z"/><path class="cls-19" d="M2769.45,1550.34H3a3.05,3.05,0,0,1-3-3H0a3.05,3.05,0,0,1,3-3H2769.45a3.05,3.05,0,0,1,3.05,3h0A3.06,3.06,0,0,1,2769.45,1550.34Z"/><rect class="cls-5" x="1469.75" y="656.45" width="314.57" height="547.76"/><rect class="cls-20" x="1490.52" y="682.25" width="25" height="98.04"/><rect class="cls-20" x="1540.52" y="682.25" width="25" height="98.04"/><rect class="cls-20" x="1590.35" y="682.25" width="25" height="98.04"/><rect class="cls-20" x="1640.35" y="682.25" width="25" height="98.04"/><rect class="cls-20" x="1690.35" y="682.25" width="25" height="98.04"/><rect class="cls-20" x="1740.35" y="682.25" width="25" height="98.04"/><rect class="cls-21" x="1490.52" y="812.25" width="25" height="98.04"/><rect class="cls-21" x="1540.52" y="812.25" width="25" height="98.04"/><rect class="cls-21" x="1590.35" y="812.25" width="25" height="98.04"/><rect class="cls-21" x="1640.35" y="812.25" width="25" height="98.04"/><rect class="cls-21" x="1690.35" y="812.25" width="25" height="98.04"/><rect class="cls-21" x="1740.35" y="812.25" width="25" height="98.04"/><rect class="cls-21" x="1490.52" y="942.25" width="25" height="98.04"/><rect class="cls-21" x="1540.52" y="942.25" width="25" height="98.04"/><rect class="cls-21" x="1590.35" y="942.25" width="25" height="98.04"/><rect class="cls-21" x="1640.35" y="942.25" width="25" height="98.04"/><rect class="cls-21" x="1690.35" y="942.25" width="25" height="98.04"/><rect class="cls-21" x="1740.35" y="942.25" width="25" height="98.04"/><rect class="cls-21" x="1490.52" y="1073.25" width="25" height="98.04"/><rect class="cls-21" x="1540.52" y="1073.25" width="25" height="98.04"/><rect class="cls-21" x="1590.35" y="1073.25" width="25" height="98.04"/><rect class="cls-21" x="1640.35" y="1073.25" width="25" height="98.04"/><rect class="cls-21" x="1690.35" y="1073.25" width="25" height="98.04"/><rect class="cls-21" x="1740.35" y="1073.25" width="25" height="98.04"/><rect class="cls-5" x="1632.85" y="512.91" width="123.33" height="147.22"/></g></g></svg>