<svg xmlns="http://www.w3.org/2000/svg" viewBox="0 0 1301 290"><defs><style>.cls-1{fill:#ffc107;}.cls-2{fill:#555;}</style></defs><title>Logo-full-dark</title><g id="Layer_2" data-name="Layer 2"><g id="Layer_1-2" data-name="Layer 1"><g id="Layer_2-2" data-name="Layer 2"><g id="Layer_1-2-2" data-name="Layer 1-2"><path class="cls-1" d="M209,37V51a70.86,70.86,0,0,1,24,53.23v7.09l11,6.91v21H37v-21l11-6.91v-7.09A70.69,70.69,0,0,1,64.21,59.07h0l.23-.24c6.15-6.61,11.34-11.15,16.41-14.47a1.14,1.14,0,0,1,.23-.15,51.43,51.43,0,0,1,5.29-3.05h.11l1.15-.57c5.8-2.74,11.9-4.43,19.5-6.31h0c.92-.17,13.87-2.28,13.87,7V59h4.93v.07L122,112h34l-3.92-52.93V59H157V52l.09-.46h0a17.73,17.73,0,0,1-.09-1.79,19.27,19.27,0,0,1,13.54-18.4,8,8,0,0,1,2.29-.34h6.34a7.83,7.83,0,0,1,7.61,6H209V0H187a7.88,7.88,0,0,1-4.52,6.28,7.68,7.68,0,0,1-3.27.72h-6.34a7.83,7.83,0,0,1-7.46-5.46h0A9.21,9.21,0,0,1,165,0H124.15A3.17,3.17,0,0,0,121,3.17v.66C91.53,12.41,70.7,31.56,64.18,59.07H0V163.48A126.51,126.51,0,0,0,126.48,290h28A126.49,126.49,0,0,0,281,163.52V37Zm2.52,124.22a71,71,0,0,1-142,0h0v-3H122l-3,30.56,20,12.55,20.05-12.55-3-30.56H211.5Z"/></g></g><path class="cls-2" d="M321,144.94c0-55.24,31.34-89.46,80.58-89.46,40.23,0,70.85,25.09,74.69,62.32h-30.5c-4.08-21.74-21.74-36-44.19-36-29.78,0-48.88,24.5-48.88,63.17,0,38.91,19,63.29,49,63.29,22.93,0,39.39-12.37,44.19-33.27h30.38c-5.4,37.11-33.74,59.56-74.69,59.56C352.1,234.52,321,200.54,321,144.94Z"/><path class="cls-2" d="M643.45,145.06c0,55.12-31.7,89.46-82.14,89.46s-82.26-34.34-82.26-89.46,31.71-89.58,82.26-89.58S643.45,89.94,643.45,145.06Zm-132.69,0c0,38.55,19.57,63.05,50.55,63.05s50.56-24.5,50.56-63.05-19.7-63.17-50.56-63.17S510.76,106.39,510.76,145.06Z"/><path class="cls-2" d="M653.32,231.64V58.36h26.9l86,121.41h1.08V58.36h29.78V231.64H770.4L684.3,110.12h-1.08V231.64Z"/><path class="cls-2" d="M963.88,231.64v-123H963L913,230.2H891.83L841.75,108.67h-.84v123h-28V58.36h35.91l53.08,130.77h1L956,58.36h35.79V231.64Z"/><path class="cls-2" d="M1106.08,186.85h-63.76l-14.78,44.79H995.6l61.49-173.28H1092l61.49,173.28h-32.67ZM1049.52,163h49.24l-24.14-74h-.84Z"/><path class="cls-2" d="M1157.26,231.64V58.36h26.9l86,121.41h1.08V58.36H1301V231.64h-26.66l-86.1-121.52h-1.08V231.64Z"/></g></g></svg>