<svg xmlns="http://www.w3.org/2000/svg" viewBox="0 0 281 289.98"><defs><style>.cls-1{fill:#fff;}</style></defs><title>Logo</title><g id="Layer_2" data-name="Layer 2"><g id="Layer_1-2" data-name="Layer 1"><path class="cls-1" d="M209,37V51a70.89,70.89,0,0,1,24,53.23v7.09l11,6.91v21H37v-21l11-6.91v-7.09A70.67,70.67,0,0,1,64.21,59.07h0l.23-.24c6.15-6.61,11.34-11.15,16.41-14.47a1.82,1.82,0,0,1,.23-.15,53.17,53.17,0,0,1,5.29-3.05l.11,0,1.15-.57c5.8-2.74,11.9-4.43,19.5-6.31h0C108.05,34.11,121,32,121,41.33V59h4.93v.07L122,112h34l-3.92-52.93V59H157V52l.09-.46h0a17.73,17.73,0,0,1-.09-1.79,19.28,19.28,0,0,1,9.15-16.4,19,19,0,0,1,4.39-2,7.93,7.93,0,0,1,2.29-.34h6.34a7.83,7.83,0,0,1,7.61,6H209V0h-22a7.86,7.86,0,0,1-4.52,6.28,7.75,7.75,0,0,1-3.27.72h-6.34a7.84,7.84,0,0,1-7.46-5.46h0A8.77,8.77,0,0,1,165,0H124.15A3.17,3.17,0,0,0,121,3.17v.66C91.53,12.41,70.7,31.56,64.18,59.07H0V163.48A126.5,126.5,0,0,0,126.5,290h28A126.49,126.49,0,0,0,281,163.48V37Zm2.52,124.22a71,71,0,1,1-142,0v-3H122l-3,30.56,20,12.55,20.05-12.55-3-30.56H211.5Z"/></g></g></svg>